<?xml version="1.0" encoding="utf-8"?>
<!-- Generator: Adobe Illustrator 22.0.0, SVG Export Plug-In . SVG Version: 6.00 Build 0)  -->
<svg version="1.1" id="Capa_1" xmlns="http://www.w3.org/2000/svg" xmlns:xlink="http://www.w3.org/1999/xlink" x="0px" y="0px"
	 viewBox="0 0 348.3 348.3" style="enable-background:new 0 0 348.3 348.3;" xml:space="preserve">
<style type="text/css">
	.st0{fill:#0077C0;}
</style>
<g>
	<path class="st0" d="M244.4,128.5l-45.7,45.7l45.7,45.7c6.8,6.8,6.8,17.8,0,24.6c-3.4,3.4-7.8,5.1-12.3,5.1
		c-4.5,0-8.9-1.7-12.3-5.1l-45.7-45.7l-45.6,45.6c-3.4,3.4-7.8,5.1-12.3,5.1s-8.9-1.7-12.3-5.1c-6.8-6.8-6.8-17.8,0-24.6l45.7-45.7
		l-45.7-45.6c-6.8-6.8-6.8-17.8,0-24.6s17.8-6.8,24.6,0l45.7,45.7l45.7-45.7c6.8-6.8,17.8-6.8,24.6,0
		C251.2,110.7,251.2,121.7,244.4,128.5z"/>
</g>
<path class="st0" d="M174.2,0C78,0,0,78,0,174.2s78,174.2,174.2,174.2s174.2-78,174.2-174.2S270.4,0,174.2,0z M174.2,323.4
	c-82.5,0-149.3-66.8-149.3-149.3S91.7,24.8,174.2,24.8c82.4,0,149.3,66.8,149.3,149.3C323.4,256.6,256.6,323.4,174.2,323.4z"/>
</svg>
