<?xml version="1.0" encoding="utf-8"?>
<!-- Generator: Adobe Illustrator 22.0.0, SVG Export Plug-In . SVG Version: 6.00 Build 0)  -->
<svg version="1.1" id="Layer_2_1_" xmlns="http://www.w3.org/2000/svg" xmlns:xlink="http://www.w3.org/1999/xlink" x="0px" y="0px"
	 viewBox="0 0 348.3 348.3" style="enable-background:new 0 0 348.3 348.3;" xml:space="preserve">
<style type="text/css">
	.st0{fill:#0077C0;stroke:#0E77BE;stroke-width:21;stroke-miterlimit:10;}
</style>
<path class="st0" d="M333.3,319.2c2,1.9,3,4.6,3,7.3c-0.1,2.6-1.2,5.1-3.1,6.9s-4.4,2.8-7,2.8H326c-2.6-0.1-5.1-1.2-6.8-3l-145-145
	l-145,145c-1.8,1.9-4.3,3-6.8,3h-0.3c-2.6,0-5.2-1.1-7.1-3c-2-1.9-3-4.6-3-7.3c0.1-2.6,1.2-5.1,3-6.8l145-145L15,29.1
	c-2-1.9-3-4.6-3-7.4c0.1-2.6,1.2-5.1,3.1-6.9c1.9-1.9,4.6-2.9,7.2-2.8c2.6,0.1,5.1,1.2,6.8,3l145,145l145-145c1.9-1.9,4.6-3,7.3-3
	c2.6,0.1,5.1,1.2,6.9,3.1c1.8,1.9,2.9,4.5,2.8,7.2c-0.1,2.6-1.2,5.1-3,6.8l-145,145L333.3,319.2z"/>
</svg>
